<svg fill="#BFCAC5" height="100px" id="Calque_1" data-name="Calque 1" xmlns="http://www.w3.org/2000/svg" viewBox="0 0 338 105.62"><path d="M40.92,85.77A22.38,22.38,0,0,1,32.4,77.4a23.31,23.31,0,0,1-3.16-12.07,23.19,23.19,0,0,1,3.16-12A22.49,22.49,0,0,1,40.92,45a24.86,24.86,0,0,1,23.64,0A22.05,22.05,0,0,1,73,53.28a23.63,23.63,0,0,1,3.09,12A23.57,23.57,0,0,1,73,77.4a22.32,22.32,0,0,1-8.47,8.37,24.78,24.78,0,0,1-23.6,0ZM61.5,75a13.83,13.83,0,0,0,3.28-9.63q0-6.06-3.28-9.67a11.29,11.29,0,0,0-8.76-3.61,11.38,11.38,0,0,0-8.82,3.58q-3.29,3.59-3.29,9.7T43.92,75a11.36,11.36,0,0,0,8.82,3.61A11.25,11.25,0,0,0,61.5,75Z" transform="translate(0)"/><path d="M97.92,53a13.79,13.79,0,0,1,6.7-1.56,15,15,0,0,1,8.14,2.28,15.79,15.79,0,0,1,5.76,6.51,21.72,21.72,0,0,1,2.12,9.83,21.91,21.91,0,0,1-2.12,9.86,15.93,15.93,0,0,1-5.76,6.58,14.88,14.88,0,0,1-8.14,2.31A13.86,13.86,0,0,1,98,87.27a12.18,12.18,0,0,1-4.52-4v22.39H82.3V52H93.43v5.14A12.13,12.13,0,0,1,97.92,53ZM107,63.54a7.62,7.62,0,0,0-5.7-2.38,7.5,7.5,0,0,0-5.63,2.41,9.12,9.12,0,0,0-2.31,6.58,9.11,9.11,0,0,0,2.31,6.57,7.79,7.79,0,0,0,11.3,0,9.16,9.16,0,0,0,2.34-6.61A9,9,0,0,0,107,63.54Z" transform="translate(0)"/><path d="M142.12,53a13.79,13.79,0,0,1,6.7-1.56A15,15,0,0,1,157,53.74a15.79,15.79,0,0,1,5.76,6.51,21.72,21.72,0,0,1,2.12,9.83,21.91,21.91,0,0,1-2.12,9.86A15.93,15.93,0,0,1,157,86.52a14.88,14.88,0,0,1-8.14,2.31,13.86,13.86,0,0,1-6.67-1.56,12.18,12.18,0,0,1-4.52-4v22.39H126.5V52h11.13v5.14A12.13,12.13,0,0,1,142.12,53Zm9.08,10.52a7.62,7.62,0,0,0-5.7-2.38,7.5,7.5,0,0,0-5.63,2.41,9.12,9.12,0,0,0-2.31,6.58,9.11,9.11,0,0,0,2.31,6.57,7.79,7.79,0,0,0,11.3,0,9.16,9.16,0,0,0,2.34-6.61A9,9,0,0,0,151.2,63.54Z" transform="translate(0)"/><path d="M177,87.2a14.47,14.47,0,0,1-5.86-4.46,11.79,11.79,0,0,1-2.41-6.34h11a4.22,4.22,0,0,0,1.75,3,6.18,6.18,0,0,0,3.84,1.18,5.45,5.45,0,0,0,3.23-.82,2.5,2.5,0,0,0,1.14-2.11,2.47,2.47,0,0,0-1.63-2.32,33.38,33.38,0,0,0-5.27-1.65,48.1,48.1,0,0,1-6.51-1.93,11.24,11.24,0,0,1-4.5-3.18,8.71,8.71,0,0,1-1.88-5.9A10,10,0,0,1,171.64,57,11.57,11.57,0,0,1,176.72,53a19.38,19.38,0,0,1,8-1.5q6.84,0,10.78,3.39a13.17,13.17,0,0,1,4.52,9H189.71a4.44,4.44,0,0,0-1.66-3,5.76,5.76,0,0,0-3.68-1.11,5.11,5.11,0,0,0-3,.75,2.4,2.4,0,0,0-1,2.05A2.49,2.49,0,0,0,182,64.87a26.61,26.61,0,0,0,5.18,1.56,55.85,55.85,0,0,1,6.57,2.06,11.29,11.29,0,0,1,4.46,3.25,9.24,9.24,0,0,1,2,6,9.58,9.58,0,0,1-1.79,5.7,11.92,11.92,0,0,1-5.15,3.94,19.73,19.73,0,0,1-7.77,1.43A20.84,20.84,0,0,1,177,87.2Z" transform="translate(0)"/><path d="M229.22,88.31,218.15,73.07V88.31H207V40.13h11.13V66.76l11-14.78h13.73l-15.1,18.23L243,88.31Z" transform="translate(0)"/><path d="M263.27,53.32a12.58,12.58,0,0,1,6.51-1.73V63.37h-3.06q-4.17,0-6.25,1.8t-2.09,6.28V88.31H247.25V52h11.13V58A14.77,14.77,0,0,1,263.27,53.32Z" transform="translate(0)"/><path d="M275.93,46.48a5.58,5.58,0,0,1-1.86-4.26,5.65,5.65,0,0,1,1.86-4.33,6.75,6.75,0,0,1,4.78-1.73,6.65,6.65,0,0,1,4.72,1.73,5.65,5.65,0,0,1,1.86,4.33,5.58,5.58,0,0,1-1.86,4.26,6.65,6.65,0,0,1-4.72,1.73A6.75,6.75,0,0,1,275.93,46.48ZM286.25,52V88.31H275.12V52Z" transform="translate(0)"/><path d="M312.55,61.23h-6V88.31H295.43V61.23h-4V52h4v-1q0-6.7,3.84-10.19t11.26-3.48a16.13,16.13,0,0,1,1.82.07v9.43c-2.12-.13-3.62.18-4.49.92s-1.3,2.06-1.3,4V52h6Z" transform="translate(0)"/><path d="M338,78.87v9.44h-5.66q-6.06,0-9.44-3t-3.39-9.67V61.23h-4.42V52h4.42V43.13h11.13V52h7.29v9.25h-7.29V75.81a3,3,0,0,0,.79,2.34,3.78,3.78,0,0,0,2.6.72Z" transform="translate(0)"/><rect y="58.96" width="32.26" height="12.04"/><path d="M41.68,36h-10a16.82,16.82,0,0,1,1.93-8.16A7.23,7.23,0,0,0,34.55,24a7.16,7.16,0,0,0-.94-3.83A16.89,16.89,0,0,1,31.68,12a16.85,16.85,0,0,1,1.93-8.16A7.16,7.16,0,0,0,34.55,0h10a16.89,16.89,0,0,1-1.93,8.16A7.16,7.16,0,0,0,41.68,12a7.16,7.16,0,0,0,.94,3.83A16.89,16.89,0,0,1,44.55,24a16.85,16.85,0,0,1-1.93,8.16A7.18,7.18,0,0,0,41.68,36Z" transform="translate(0)"/><path d="M56.24,36h-10a16.9,16.9,0,0,1,1.93-8.17A7.16,7.16,0,0,0,49.12,24a7.16,7.16,0,0,0-.95-3.83A16.89,16.89,0,0,1,46.24,12a16.85,16.85,0,0,1,1.93-8.16A7.16,7.16,0,0,0,49.12,0h10a16.83,16.83,0,0,1-1.94,8.16A7.16,7.16,0,0,0,56.24,12a7.16,7.16,0,0,0,.94,3.83A16.83,16.83,0,0,1,59.12,24a16.83,16.83,0,0,1-1.94,8.16A7.18,7.18,0,0,0,56.24,36Z" transform="translate(0)"/><path d="M70.8,36h-10a16.94,16.94,0,0,1,1.93-8.16,7.23,7.23,0,0,0,1-3.84,7.16,7.16,0,0,0-1-3.83A17,17,0,0,1,60.8,12a17,17,0,0,1,1.93-8.16,7.16,7.16,0,0,0,1-3.83h10a17,17,0,0,1-1.93,8.16,7.16,7.16,0,0,0-1,3.83,7.16,7.16,0,0,0,1,3.83A17,17,0,0,1,73.68,24a17,17,0,0,1-1.93,8.16A7.18,7.18,0,0,0,70.8,36Z" transform="translate(0)"/></svg>